<?xml version="1.0" standalone="no"?>
<!DOCTYPE svg PUBLIC "-//W3C//DTD SVG 20010904//EN"
 "http://www.w3.org/TR/2001/REC-SVG-20010904/DTD/svg10.dtd">
<svg style="background-color:white;" version="1.0" xmlns="http://www.w3.org/2000/svg"
 width="1024.000000pt" height="905.000000pt" viewBox="0 0 1024.000000 905.000000"
 preserveAspectRatio="xMidYMid meet">
<metadata>
Created by potrace 1.16, written by Peter Selinger 2001-2019
</metadata>
<g transform="translate(0.000000,905.000000) scale(0.100000,-0.100000)"
fill="#000000" stroke="none">
<path d="M0 4525 l0 -4525 5120 0 5120 0 0 4525 0 4525 -5120 0 -5120 0 0
-4525z m2218 909 c30 -21 44 -58 33 -86 -13 -35 35 -126 67 -130 14 -2 34 -15
45 -29 16 -23 18 -32 8 -61 -11 -32 -8 -41 55 -156 37 -70 63 -129 60 -138
-14 -36 -43 -5 -108 116 -57 106 -71 126 -96 132 -43 11 -56 31 -49 80 8 57
-32 138 -67 138 -25 0 -66 41 -66 67 0 25 29 71 47 76 34 9 49 7 71 -9z m-283
-249 c17 -16 25 -35 25 -59 0 -30 9 -42 69 -95 57 -50 75 -61 104 -61 45 0 77
-31 77 -76 0 -26 11 -42 60 -87 64 -60 68 -68 45 -87 -12 -10 -26 -2 -79 50
-50 48 -69 60 -85 55 -40 -12 -92 32 -89 76 2 21 -11 39 -65 88 -59 53 -72 61
-108 61 -50 0 -89 35 -89 80 0 41 39 80 80 80 19 0 40 -9 55 -25z m1845 -421
l200 -127 0 -248 0 -248 -32 -24 c-93 -69 -370 -238 -382 -234 -8 3 -67 39
-132 80 -66 40 -129 79 -141 86 -20 10 -33 5 -110 -45 -154 -99 -129 -99 -282
-5 l-132 81 -85 -50 c-46 -27 -88 -50 -92 -50 -4 0 -79 45 -167 99 l-160 99
-3 219 -2 218 151 94 c83 51 159 96 169 98 10 3 60 -18 112 -46 l93 -50 30 18
c17 10 74 44 128 76 l97 57 120 -73 c107 -64 123 -71 143 -60 12 7 74 45 137
86 63 40 121 74 127 74 7 1 103 -56 213 -125z m-1903 51 c11 -8 23 -25 26 -38
5 -18 33 -34 147 -82 153 -65 172 -77 149 -101 -13 -13 -33 -7 -160 46 -137
58 -146 60 -182 49 -33 -11 -41 -10 -65 8 -78 58 5 174 85 118z m4397 -151
c31 -30 7 -94 -35 -94 -40 0 -66 69 -37 98 17 17 54 15 72 -4z m-1946 -23 c9
-1 12 -28 12 -101 l0 -100 115 0 115 0 0 100 0 100 50 0 50 0 0 -240 0 -240
-50 0 -50 0 0 110 0 110 -115 0 -115 0 0 -110 0 -110 -45 0 -45 0 0 243 0 243
33 -2 c17 -1 38 -2 45 -3z m3516 -227 c50 -126 95 -235 99 -242 6 -9 -5 -12
-46 -12 l-55 0 -23 65 -23 66 -100 -3 -100 -3 -20 -62 c-17 -51 -25 -63 -43
-63 -12 0 -28 -3 -37 -6 -10 -4 -16 -1 -16 7 0 7 38 107 84 223 47 116 89 222
94 236 8 22 15 25 52 24 l42 -1 92 -229z m645 230 c28 -6 31 -10 31 -46 l0
-39 -32 17 c-75 39 -168 14 -168 -45 0 -39 7 -45 108 -96 101 -51 122 -75 122
-143 0 -50 -34 -101 -83 -126 -44 -21 -147 -24 -202 -6 -32 11 -35 15 -35 52
0 22 3 38 8 36 122 -63 222 -53 222 22 0 40 -18 56 -101 94 -95 43 -129 80
-129 142 0 94 57 143 166 144 34 0 76 -3 93 -6z m-374 -244 l0 -240 -47 0 -48
0 0 240 0 240 48 0 47 0 0 -240z m-1395 100 c0 -27 -3 -30 -30 -30 -27 0 -30
-2 -20 -19 5 -11 10 -38 10 -61 0 -32 -6 -48 -28 -70 -34 -33 -96 -53 -140
-44 -24 5 -33 2 -38 -10 -11 -29 12 -39 106 -46 75 -5 94 -10 115 -30 29 -28
34 -84 10 -129 -29 -57 -153 -93 -245 -71 -89 21 -119 94 -60 144 l31 25 -21
21 c-27 27 -25 42 7 80 l27 32 -21 17 c-69 54 -50 156 35 194 36 15 58 18 106
14 34 -4 77 -2 96 2 56 14 60 13 60 -19z m-1655 -14 c51 -39 68 -84 63 -167
-6 -114 -67 -169 -186 -169 -74 0 -118 26 -149 90 -49 96 -18 215 67 258 64
33 152 28 205 -12z m389 26 c2 -4 1 -23 -3 -42 -7 -33 -9 -35 -44 -32 -28 3
-42 -2 -62 -22 -24 -24 -25 -30 -25 -141 l0 -115 -45 0 -45 0 0 138 c0 75 -3
154 -7 175 l-6 38 44 -3 c41 -3 44 -5 47 -35 l3 -33 38 40 c28 30 46 40 69 40
17 0 33 -3 36 -8z m329 -3 c12 -6 29 -20 38 -32 16 -20 16 -20 52 7 46 36 103
44 146 21 50 -25 61 -64 61 -215 l0 -130 -45 0 -45 0 0 123 c0 143 -9 167 -66
167 -21 0 -42 -8 -54 -20 -18 -18 -20 -33 -20 -145 l0 -125 -45 0 -45 0 0 114
c0 127 -9 162 -42 175 -29 10 -75 -5 -88 -29 -6 -10 -10 -73 -10 -139 l0 -121
-45 0 -45 0 0 129 c0 70 -3 149 -6 175 l-7 46 47 0 c42 0 46 -2 46 -25 0 -26
14 -33 26 -14 12 20 69 49 97 49 16 0 38 -5 50 -11z m1210 0 c63 -17 77 -52
77 -187 0 -106 1 -114 21 -119 14 -4 19 -12 17 -27 -2 -17 -11 -22 -44 -24
-34 -2 -45 1 -61 21 l-19 24 -28 -23 c-20 -18 -39 -24 -75 -24 -85 0 -128 59
-97 133 17 41 51 62 133 80 51 12 58 17 61 39 2 14 -4 33 -13 42 -20 20 -91
21 -125 1 -35 -20 -40 -19 -40 14 0 24 6 31 33 40 74 23 107 25 160 10z m406
-4 c12 -7 15 -65 4 -65 -5 1 -19 7 -33 15 -33 19 -84 19 -100 0 -23 -27 -6
-49 65 -85 74 -37 95 -62 95 -115 0 -64 -56 -105 -144 -105 -79 0 -106 13
-106 49 l0 30 35 -15 c68 -28 141 -9 133 35 -2 9 -32 30 -68 48 -78 38 -100
63 -100 112 0 74 57 114 152 107 31 -2 61 -7 67 -11z m-1119 -170 l0 -175 -45
0 -45 0 0 159 c0 88 3 166 6 175 4 11 19 16 45 16 l39 0 0 -175z m-4640 115
l28 -30 263 -2 c256 -3 264 -4 264 -23 0 -19 -8 -20 -264 -23 l-263 -2 -28
-30 c-56 -60 -150 -25 -150 55 0 80 94 115 150 55z m560 -250 c14 -25 0 -34
-162 -100 -79 -33 -128 -58 -128 -67 0 -25 -47 -63 -80 -63 -67 0 -97 88 -44
129 30 23 55 26 85 10 20 -10 96 16 254 87 62 28 62 28 75 4z m127 -136 c4
-12 -12 -34 -54 -75 -47 -46 -60 -64 -60 -88 0 -45 -28 -71 -77 -71 -36 -1
-49 -8 -108 -64 -57 -54 -68 -69 -68 -97 0 -74 -95 -109 -139 -53 -24 30 -26
55 -9 87 18 35 40 47 79 45 31 -3 44 5 107 63 59 55 72 72 72 97 0 39 43 76
80 69 20 -4 36 6 82 49 58 56 84 66 95 38z m161 -107 c2 -10 -26 -72 -62 -138
-56 -105 -63 -124 -55 -147 15 -39 -6 -79 -48 -94 -46 -17 -85 -89 -71 -130
21 -61 -50 -118 -108 -88 -66 36 -41 140 33 140 29 0 65 81 57 129 -8 49 8 78
49 89 23 6 38 19 53 48 110 205 116 215 132 212 9 -2 18 -11 20 -21z"/>
<path d="M3460 4754 c-126 -79 -119 -73 -97 -85 9 -6 17 -19 17 -29 0 -11 2
-20 4 -20 3 0 42 23 88 51 46 29 88 52 93 52 6 0 70 -37 143 -82 l132 -82 0
-168 c0 -147 -2 -170 -17 -183 -30 -25 -244 -158 -256 -158 -5 0 -42 20 -81
44 -39 24 -76 46 -81 48 -6 2 -23 -9 -38 -23 l-28 -26 114 -71 c63 -40 117
-72 120 -72 4 0 82 49 174 109 l168 109 2 218 3 219 -165 103 c-90 56 -170
104 -177 107 -7 3 -60 -25 -118 -61z"/>
<path d="M2945 4735 c-49 -30 -91 -58 -92 -62 -2 -5 17 -20 42 -35 l45 -28 0
-204 0 -205 51 -35 51 -34 52 33 51 33 3 215 2 216 30 21 c17 12 30 24 30 28
0 7 -163 112 -171 112 -2 -1 -44 -25 -94 -55z"/>
<path d="M2505 4697 c-45 -29 -104 -66 -133 -84 l-52 -32 0 -183 0 -183 135
-83 c75 -46 139 -82 143 -80 4 2 31 16 59 32 l52 29 -22 27 -22 28 -36 -20
-36 -20 -99 63 c-54 35 -102 68 -106 74 -4 5 -8 67 -8 136 0 145 -11 127 126
213 l92 57 33 -20 34 -20 27 24 27 24 -65 35 c-35 20 -66 36 -67 35 -1 -1 -38
-24 -82 -52z"/>
<path d="M3472 4599 l-82 -50 2 -162 3 -162 80 -53 c44 -29 87 -51 96 -48 9 2
60 32 113 66 l97 62 -3 136 -3 136 -99 63 c-55 35 -104 63 -111 63 -6 0 -48
-23 -93 -51z"/>
<path d="M2753 4623 c-13 -8 -23 -19 -23 -23 0 -5 20 -20 45 -34 l45 -27 0
-133 c0 -131 0 -134 25 -150 13 -9 27 -16 30 -16 3 0 5 76 5 169 l0 169 -50
31 c-28 17 -51 31 -53 30 -1 0 -12 -7 -24 -16z"/>
<path d="M3243 4619 l-33 -21 0 -179 c0 -123 3 -179 11 -179 6 0 24 10 41 21
l30 22 -4 133 c-3 127 -2 134 20 154 28 26 28 35 0 54 -28 20 -26 20 -65 -5z"/>
<path d="M2522 4550 l-74 -47 0 -101 c0 -56 3 -105 6 -110 3 -5 37 -28 76 -52
l69 -42 36 22 35 22 0 159 0 159 -37 18 -38 19 -73 -47z"/>
<path d="M2730 4395 c0 -89 3 -116 13 -112 8 2 12 34 12 112 0 78 -4 110 -12
113 -10 3 -13 -24 -13 -113z"/>
<path d="M2753 4213 c-28 -19 -29 -29 -3 -43 15 -8 27 -7 51 5 l30 16 -24 20
c-29 22 -26 22 -54 2z"/>
<path d="M3256 4187 l-29 -24 23 -16 c21 -15 25 -14 56 6 30 20 32 23 17 39
-21 24 -32 23 -67 -5z"/>
<path d="M2857 4132 l-27 -19 102 -62 c57 -34 108 -59 117 -56 8 3 48 27 89
52 l74 46 -23 18 c-32 24 -32 24 -91 -16 l-52 -34 -35 21 c-20 12 -52 32 -71
45 -42 28 -47 28 -83 5z"/>
<path d="M7682 4523 c-19 -48 -62 -165 -62 -169 0 -2 34 -4 76 -4 69 0 75 2
69 18 -4 9 -20 53 -36 97 -17 44 -32 81 -33 83 -2 1 -8 -10 -14 -25z"/>
<path d="M6495 4455 c-57 -56 -10 -154 63 -130 46 14 47 121 2 145 -28 15 -38
12 -65 -15z"/>
<path d="M6462 4138 c-19 -19 -14 -63 9 -84 28 -25 105 -26 142 -1 33 22 36
60 5 81 -27 19 -138 22 -156 4z"/>
<path d="M4912 4464 c-43 -19 -59 -172 -23 -230 38 -62 107 -50 138 24 20 48
12 145 -15 181 -19 25 -68 38 -100 25z"/>
<path d="M6923 4319 c-72 -21 -82 -109 -13 -109 55 0 70 15 70 70 0 54 -2 55
-57 39z"/>
</g>
</svg>
